<svg xmlns="http://www.w3.org/2000/svg" width="450" height="140.625"><defs><filter id="a" width="1.022" height="1.073" x="-.011" y="-.036" style="color-interpolation-filters:sRGB"><feGaussianBlur result="blur" stdDeviation="2 2"/></filter></defs><path d="M27.076 2.916a6.866 6.866 0 0 0-3.764 1.316C21.9 5.274 21.136 6.38 20.744 7.248c-.37.82-.39 1.427-.394 1.504-.165.632-.243 1.285-.176 1.935l4.424 42.663.31-.239a5.465 5.465 0 0 0-2.119 4.756l.164 2.112c.105 1.343.73 2.513 1.633 3.41-10.354 1.93-18.23 8.484-20.895 16.853C2.13 85.15 2.486 90.68 5.181 95.527c2.647 4.76 7.378 8.688 13.907 11.338l-.127-.064c.877.521 1.74.79 2.61 1.125a5.021 5.021 0 0 0-.887 1.408.949.949 0 0 0-.028.078l-4.55 14.406c-.958 3.034 1.151 6.222 4.318 6.526 0 0 3.888.375 8.426.527 4.488.151 9.312.448 13.572-1.055a.949.949 0 0 0 .023-.01c3.918-1.405 7.143-3.392 9.7-5.793.937.338 1.9.662 2.976.768a47.82 47.82 0 0 0 3.084.207c5.389.182 9.913-1.012 13.147-3.734l.027.314-.375.574a5.036 5.036 0 0 0-.791 3.27l.266 2.562c.397 3.813 4.868 5.804 7.966 3.55l.004-.003.365-.236h.002c.177.022.4.052.643.107.661.151 1.188.32 1.188.32.343.112.697.186 1.056.221l1.768.176c2.203.219 4.183-1.046 5.052-2.924 1.083 1.077 2.582 1.707 4.188 1.485a.949.949 0 0 0 .062-.01l9.987-2.077a.949.949 0 0 0 .314-.128c.271-.172.476-.422.71-.641 3.675 1.953 7.827 3.219 12.341 3.219 10.37 0 19.416-5.925 23.256-14.582 1.82.49 3.691.828 5.61.832a.949.949 0 0 0 .001 0H145c5.13 0 10.156-1.895 14.086-5.133l-.104 8.887-1.117 2.84-.086.218a.949.949 0 0 0-.002.002 5.036 5.036 0 0 0-.32 2.432.949.949 0 0 0 .004.017s.095.758.35 1.536c.464 1.416 1.633 3.129 3.558 4.576 1.926 1.446 4.623 2.584 8.053 2.658 4.74.102 8.43-2.085 10.285-4.594 1.816-2.456 2.074-5.117 2.074-5.123v-.004a5.034 5.034 0 0 0-.62-3l-1.218-2.156.02-.315.273-4.578c.227-3.787.53-8.839.832-13.918.303-5.079.604-10.186.832-14.084.115-1.949.21-3.594.278-4.787.067-1.184.103-1.508.117-2.222.041-2.033-1.01-3.498-1.81-4.27-.76-.732-1.488-1.12-2.083-1.392-1.2-.552-2.34-.848-3.726-.88a6.18 6.18 0 0 0-2.508.462l.04-.034c-.002 0 .092-.062.107-.07.119-.065.02-.011-.014.002s-.08.028-.053.022c-.218.05-.585.126-1.014.21-.861.17-2.006.376-3.13.573-2.25.394-4.424.75-4.424.75-2.316.378-4.02 2.327-4.172 4.646-3.982-3.454-9.197-5.462-14.506-5.463h-.014c-7.699.02-14.914 4.52-18.77 10.971-3.107-1.28-6.489-2.096-10.093-2.096-7.165 0-13.642 2.85-18.291 7.434-.78-.675-1.567-1.36-2.607-1.904-2.925-1.528-5.642-1.515-8.024-1.145-.191-2.035-.351-3.722-.521-5.555-.095-1.02-.31-2.884-2.227-4.527-1.964-1.684-3.608-1.559-4.185-1.611-2.363-.215-4.548.14-6.393.435-1.874.3-3.38.637-3.38.637a5.047 5.047 0 0 0-3.852 5.832l.443 2.387c.02.103.092.184.117.285a13.665 13.665 0 0 0-3.598-1.223 23.857 23.857 0 0 0-4.761-.437c-6.11.084-10.841 3.184-13.87 7.285-1.005-.561-2.197-.984-3.304-1.473.883-.191 1.731-.597 2.441-1.306a.949.949 0 0 0 .002 0c.614-.614.657-.785.6-.71.108-.142.222-.298.355-.48.267-.364.606-.835 1.002-1.39a871.66 871.66 0 0 0 2.803-3.958c1.999-2.835 3.951-5.623 3.951-5.623a5.037 5.037 0 0 0 .643-4.503.949.949 0 0 0-.016-.041s-.195-.533-.445-.969a7.417 7.417 0 0 0-.752-1.066c-.6-.716-1.402-1.435-2.48-2.164-1.452-.981-3.7-2.003-6.512-3.04 1.316-.893 2.28-2.284 2.423-3.988l1.432-16.976 3.608 3.695.283 14.39c.059 2.978 2.52 5.376 5.498 5.356l12.752-.086a.949.949 0 0 0 .01 0c.764-.012 1.49-.22 2.173-.533.198 2.252 1.738 4.184 3.936 4.797 0 0 1.078.303 2.385.555 1.063.205 2.518.895 5.431.078 1.467-.412 2.942-1.288 3.975-2.361.794-.826 1.21-1.557 1.635-2.256-.181 2.311.197 4.61 1.242 6.574 2.984 5.609 9.012 7.607 14.756 8.334 5.765.73 11.98.103 17.357-2.182 2.69-1.143 5.243-2.748 7.227-5.111 1.817-2.164 2.966-5.028 3.095-8.096.416-1.742.338-3.429.032-5.04.087-.008.115.005.207-.009 1.325-.199 1.88-.407 2.502-.6.439.148.777.295 1.703.436.621.095 1.508.22 2.492.291.885.065 1.965.233 3.701-.21.318-.082.446-.257.727-.368-.113.287-.186.555-.313.85a5.47 5.47 0 0 0 1.485 6.318.949.949 0 0 0 .004.004s5.306 4.457 12.623 3.246c4.345-.72 7.873-3.458 10.205-7.12 1.99.431 3.853.584 5.228.376 1.098-.166 1.524-.332 2.055-.496.354.118.61.235 1.371.351.549.085 1.338.197 2.225.262.775.057 1.779.222 3.455-.209 2.306-.593 3.524-1.95 3.869-2.36.687.01 1.347.005 1.8-.066.65-.1 1.176-.22 1.176-.22a.949.949 0 0 0 .354-.162c.358-.264.565-.667.848-1.006.056.047.098.109.156.154a.949.949 0 0 0 .217.127s1.087.453 2.48.838c.903.25 2.165.376 3.46.441.16 2.409 1.834 4.489 4.243 4.998a.949.949 0 0 0 .002 0l4.819 1.018a.949.949 0 0 0 .037.008c1.02.173 2.035-.026 2.98-.418.133.134.246.288.393.408a.949.949 0 0 0 .187.12l11.13 5.392c2.885 1.398 6.383-.006 7.501-3.01l.002-.004c.003-.007 2.46-6.429 3.45-10.773.426-1.875.734-4.185.993-6.25l2.131.029.989 13.094c.24 3.17 3.163 5.48 6.302 4.982l9.973-1.586-.059.008s.982-.094 2.182-.537c.54-.2 1.416-.535 2.39-1.408 1.144-1.025 2.316-3.06 2.003-5.362-.148-1.085-.638-1.952-1.204-2.695l1.186-.063a.949.949 0 0 0 .04-.002c.555-.052 1.067-.281 1.58-.498.16.095.303.183.509.291 1.053.556 2.358 1.27 4.324 1.61 3.343.579 6.36-.021 8.822-.735 1.651-.461 3.095-1.3 4.42-2.25.18.092.347.205.536.276a.949.949 0 0 0 .238.055s.353.037.75.082c.397.044.884.109.955.123.175.034.194.068.482.06a.943.943 0 0 0 .149-.015l.088-.022c1.294.356 2.618.253 3.824-.348.43.302.856.614 1.355.782a.949.949 0 0 0 .168.039s.721.103 1.477.216c.376.057.763.12 1.056.166.106.017.303.059.41.08l.085.016a.955.955 0 0 0 .066.008c.023.002.154.004.154.004l.123-.016-.013-.076c1.589.186 3.124-.254 4.07-.992a5.268 5.268 0 0 0 1.447-1.703c.403-.736.503-1.245.535-1.375.127-.502.156-.81.182-1.031.061-.518.093-1.011.123-1.575.062-1.136.104-2.539.137-3.941.065-2.807.086-5.594.086-5.594a.949.949 0 0 0 0-.002 5.56 5.56 0 0 0-.018-.46.949.949 0 0 0-.012-.096s-.049-.277-.12-.61c-.073-.332-.144-.686-.292-1.04a6.77 6.77 0 0 0-.664-1.218c-.474-.697-1.04-1.324-1.82-2.056-1.077-1.012-2.206-1.69-3.234-2.088-.525-.204-.774-.19-1.168-.25.02-.248.113-1.058-.17-2.01a5.97 5.97 0 0 0-1.633-2.621c-.333-.31-.623-.41-.94-.582.1-.276.214-.49.28-.844.621-3.33-.782-6.014-3.422-7.662a5.45 5.45 0 0 0-.994-.488.949.949 0 0 0 0-.002c-1.383-.513-2.624-.56-3.496-.533-.873.026-1.557.132-1.721.148a.949.949 0 0 0-.002 0 5.43 5.43 0 0 0-.445.063c-2.048.375-3.374 1.282-4.329 2.048-.384-.047-.749-.107-2.128-.388-2.15-.439-5.537-.557-8.885 1.068-.18.087-.354.185-.524.291a.949.949 0 0 0-.002 0c-2.11 1.329-3.724 3.22-4.765 5.389-.228-.065-.354-.143-.707-.143-.145 0-.176.044-.301.06l-.018-2.033c.331-.24.776-.508 1.533-1.503.196-.257.732-.807 1.098-1.666.366-.86.538-2.03.236-3.543-.343-1.724-1.526-3.18-2.802-3.938-1.133-.673-2.146-.835-2.88-.908-1.882-.188-4.57-.188-7.251-.205-2.691-.017-5.084-.006-5.084-.006a.949.949 0 0 0-.002 0c-3.035.017-5.49 2.534-5.432 5.568l.239 12.158-.252.008-.344-12.449c-.085-3.07-2.718-5.483-5.783-5.303l-11.65.686a5.457 5.457 0 0 0-2.077.547.949.949 0 0 0-.096.052s-3.034 1.817-3.52 4.995c-.398 2.612.72 4.97 2.393 7.21.003.036-.023.122-.021.15.009.1.022.172.037.245.03.146.07.29.115.46.093.343.165.96.268 1.46-1.523-1.217-3.402-2.01-5.565-1.906-2.828.135-5.048 1.695-6.529 3.75-1.547-.843-2.6-.951-3.293-1.086a21.869 21.869 0 0 0-1.492-.237.949.949 0 0 0-.272.006c-.264.045-.471.236-.724.319l1-9.615a5.463 5.463 0 0 0-1.348-4.188.949.949 0 0 0-.055-.059s-1.012-1.02-2.17-1.564c-1.027-.483-2.284-.801-3.722-.877-3.482-.184-6.12 1.635-6.12 1.635a.949.949 0 0 0-.01.006 5.464 5.464 0 0 0-1.62 1.773c-.41.717-.566.948-.643 1.402-.008.05.025.102.031.168-.041.168-.076.32-.11.479-.072.35-.147.755-.233 1.246-.173.985-.382 2.304-.606 3.879-.413 2.904-.85 6.765-1.158 10.725-.1-.025-.273-.096-.358-.116a21.696 21.696 0 0 0-1.818-.34 41.775 41.775 0 0 0-2.316-.279.949.949 0 0 0-.008 0c-1.364-.072-3.402-.228-5.68-.08a245.965 245.965 0 0 1 1.271-1.682 5.47 5.47 0 0 0 .233-6.578c-.02-.03-4.8-7.118-13.738-8.293h-.002a5.452 5.452 0 0 0-.698-.047.949.949 0 0 0-.002 0c-7.962-.017-13.647 5.586-16.457 11.782-.111-.019-.301-.065-.384-.084a24.364 24.364 0 0 0-2.024-.375c-1.257-.189-2.365-.295-2.365-.295a5.328 5.328 0 0 0-.227-.016h-.002c-.203-.01-.508-.036-.73-.053.04-.028.088-.04.127-.07a.949.949 0 0 0 .045-.039c2.463-2.157 3.406-5.292 3.304-7.883-.098-2.514-.944-4.663-2.14-6.443a5.46 5.46 0 0 0-1.67-1.606c-2.014-1.24-4.2-2.18-6.68-2.187-3.194-.01-5.662 1.63-7.373 3.023-1.117.91-2.278 1.937-3.455 2.95-7.134-1.255-13.763.558-18.352 4.675-1.569-1.875-3.726-3.295-6.238-3.295-3.69 0-6.89 2.738-7.912 6.266-.275-.076-.452-.172-.838-.172-.49 0-.801.14-1.178.246-1.015-3.512-3.985-6.59-7.978-6.59-.402 0-.63.131-.957.213l.006-4.478-.406.238a5.466 5.466 0 0 0 2.529-3.695l.314-1.746c.592-3.277-1.904-6.343-5.231-6.43L56.94 4.752c-3.073-.08-5.626 2.424-5.605 5.498l.059 8.553L31.316 4.078a5.467 5.467 0 0 0-1.285-.695c-.029-.012-1.286-.543-2.955-.467Zm153.955 19.387c.033.216.07.477.1.523.021.034-.05-.056-.096-.224-.031-.117-.013-.208-.004-.3zm91.139 2.785a.86.86 0 0 1 .078.05l-.078-.05zm-1.024.15 1.499.71.002.216-.14.303-.2.209s-.072.05-.092.062c-.081.049-.079.043-.08.043l-.113.041zm1.237.006c.01.008.056.07.07.094l-.07-.094zm.232.375a.62.62 0 0 1 .028.135c-.014-.067-.02-.091-.028-.135zM92.473 54.982a5.277 5.277 0 0 0 1.422 2.342c-1.691 1.987-3.004 3.993-3.897 6.069.282-2.712.44-5.411.455-8.067.118.012.18.047.31.047.602.003 1.148-.223 1.71-.39zm-17.506.174.09 3.23c-.097.024-.185.066-.28.094 0-1.107-.388-2.14-1.01-3.044.398-.06.795-.155 1.2-.28zm326.447 8.67c-2.86-.652-5.638 1.513-5.703 4.445l-.373 17.028c-.079-.01-.206-.04-.277-.053a26.797 26.797 0 0 0-2.788-.299c-1.947-.124-4.107-.146-5.921-.138-2.18.008-3.873.064-3.873.064a4.68 4.68 0 0 0-4.51 4.523.949.949 0 0 0 0 .002l-.018.614c-.122-.085-.211-.208-.342-.281a.949.949 0 0 0-.273-.102l-11.72-2.387a.949.949 0 0 0-.298-.013c-.493.056-.949.242-1.392.445l.24-14.408c.045-2.697-2.237-4.889-4.93-4.737h-.002l-3.31.188a.949.949 0 0 0-.002 0 4.663 4.663 0 0 0-2.03.596s-1.118.595-2.503 1.2c-.024.003-.05.002-.073.005-.226.021-.516.065-.883.117-.732.103-1.727.237-2.51.265-1.684.061-3.179.032-3.179.032-2.641-.051-4.817 2.132-4.756 4.773a.949.949 0 0 0 0 .002l.147 6.176c-4.507-4.103-10.375-6.557-16.37-6.557-6.604 0-13.21 1.884-18.076 6.662-4.87 4.783-7.54 12.122-7.36 21.559.186 9.691 2.796 16.969 7.61 21.697 4.815 4.73 11.337 6.402 17.866 6.348.443-.003.868-.013 1.273-.026 6.562-.198 12.09-1.758 16.213-5.253l.14 2.71a4.673 4.673 0 0 0 3.432 4.262l6.473 1.762c.17.047.343.082.517.11 4.128.633 7.916-1.133 10.301-3.725 1.583-1.72 2.398-3.841 2.863-6.035 3.687 2.974 8.9 4.256 15.03 3.074.545.654 1.215 1.197 2.029 1.474a.949.949 0 0 0 .266.05l12.197.53a4.666 4.666 0 0 0 3.922-1.845c.003-.004.433-.662.799-1.239.932.33 1.872.641 2.789.784 4.425.688 8.781-.078 10.91-.346a.949.949 0 0 0 .328-.106c.11-.058.202-.145.307-.212 1.13.823 2.313 1.578 3.61 2.048 3.125 1.133 6.496 1.378 9.946 1.174a.949.949 0 0 0 .014-.002.949.949 0 0 0 .084-.01c-.037.006.023-.004.076-.015 6.511-.448 11.456-3.2 14.318-7.057 2.866-3.86 3.653-8.33 3.649-12.08v-.074a.949.949 0 0 0 0-.01c-.17-8.77-4.769-14.77-10.555-17.477-4.39-2.054-9.067-2.65-13.474-3.15l.402-17.426a4.672 4.672 0 0 0-3.004-4.467l-7.875-3a4.646 4.646 0 0 0-.62-.187.949.949 0 0 0-.001-.002zm-109.101 6.988c-.612.003-1.264.06-1.96.174-2.18.358-4.569 1.272-6.79 2.102-2.241.837-4.127 1.613-4.127 1.613a4.113 4.113 0 0 0-2.543 3.746l-.153 12.67c-.342-.347-.624-.756-.998-1.07-4.126-3.466-9.5-4.781-14.992-4.781-5.259 0-10.337 1.33-14.35 4.457l.58-6.448a.949.949 0 0 0 0-.002c.21-2.341-1.617-4.402-3.966-4.472a.949.949 0 0 0-.002 0l-11.537-.34a.949.949 0 0 0-.014.012c-.208-.025-.423-.056-.711-.043-1.518.068-3.527.885-4.858 2.746-1.174 1.642-1.124 2.9-1.22 3.793-.115 1.072-.141 2.166-.14 3.19 0 1.9.104 3.441.12 3.68 0 .06.015 1.675.014 3.468v.046c-2.434-.129-5.347-.2-8.078.438-1.675.391-3.176 1.122-4.586 2l.072-9.234.252-.006c1.093-.034 2.222-.074 3.168-.116.924-.04 1.508-.04 2.317-.16 1.618-.238 2.693-1.296 3.224-2.152a5.608 5.608 0 0 0 .727-1.863c.21-.98.222-1.81.216-2.534a25.924 25.924 0 0 0-.183-2.812v-.004a4.119 4.119 0 0 0-4.043-3.596l-30.031-.236a4.12 4.12 0 0 0-4.133 3.846c0 .002-.077 1.153-.008 2.506.034.67.1 1.431.285 2.267.158.713.402 1.966 1.64 3.176 1.434 1.4 2.67 1.47 3.335 1.623.605.14 1.184.209 1.767.29l-.297 31.966c-.141-.017-.211-.051-.418-.055-1.714-.027-3.12.273-3.123.274a4.115 4.115 0 0 0-3.293 4.007l-.015 4.28a4.123 4.123 0 0 0 3.988 4.12l27.182.788a4.111 4.111 0 0 0 3.377-1.606l.002-.002c0-.002.484-.623.943-1.46.294-.536.652-1.466.822-2.622.097.005.163.015.264.016a37.07 37.07 0 0 0 2.441-.055c.305-.016.666-.031.895-.043l.148-.008c.022 0 .041-.002.065-.004.023-.002.008.01.15-.023l.072-.02.034-.013c.279-.019.6-.02.8-.086.16-.053.307-.134.364-.168.24-.084.46-.17.68-.26.477-.195 1-.43 1.529-.67l.232-.107c.336.31.628.675 1.05.86a.949.949 0 0 0 .313.077c1.938.138 4.363.624 7.15.46 2.868-.17 6.236-1.394 8.57-4.364.042-.055.084-.113.124-.17a.949.949 0 0 0 .02-.027c.48-.739.73-1.46.877-2.04.057.057.032.027.093.09a.949.949 0 0 0 .08.075c4.187 3.429 9.587 4.609 15.024 4.609 5.617 0 11.018-1.614 15.092-5.16.197-.172.33-.38.513-.56-.035.674-.094 1.317-.015 2.28.105 1.292.252 3.139 1.74 4.944 2.311 2.804 6.074 4.068 9.846 3.44 2.609-.436 4.42-1.83 5.953-3.1 1.554-1.288 2.816-2.551 3.738-4.04.67-1.08 1.22-2.217 1.225-3.697.005-1.328-.683-2.98-2.264-3.89.062-1.172.133-2.572.22-4.371.2-4.105.453-9.556.702-14.998.498-10.885.978-21.743.978-21.744a4.108 4.108 0 0 0-.756-2.569.949.949 0 0 0-.029-.039s-.319-.427-.719-.773a5.63 5.63 0 0 0-1.209-.795c-.951-.467-2.12-.727-3.453-.72zM30.795 84.09c2.726.08 3.462.82 4.178 1.627.343.387.529.69.625.877.096.186.086.185.086.185a.949.949 0 0 0 .005.028c.174.654.578 1.13.954 1.625-2.534-.758-5.174-1.428-8.102-1.827-.521-.07-.682-.147-.762-.181.033.083-.008.148.098-.21.125-.42.494-1.012 1.016-1.44.521-.429 1.164-.706 1.902-.684zM323.73 94.97c.102.087.224.193.403.42.576.735 1.317 2.18 1.732 3.612a.949.949 0 0 0 .008.021 4.642 4.642 0 0 0 1.84 2.45c-.703.58-1.262 1.343-1.531 2.257a.949.949 0 0 0-.018.07c-.312 1.474-.914 2.608-1.38 3.13-.544.607-.589.63-1.266.65a.949.949 0 0 0-.008 0l-.076.002c-.804-.004-1.3-.132-1.7-.37-.405-.24-.77-.63-1.2-1.274-.786-1.177-1.382-3.314-1.382-5.22 0-1.89.551-3.478 1.25-4.341s1.453-1.322 3.328-1.406zm53.89 6.21-.046 1.468-.058-1.388c.04-.025.063-.055.103-.08zm-.624.496a.143.143 0 0 1-.03.01c.042-.017-.053.03.03-.01zm-318.871.037c.351 0 .693.173.998.568.305.395.527 1 .527 1.686 0 .686-.222 1.29-.527 1.685-.305.395-.647.569-.998.569-.352 0-.695-.174-1-.569-.305-.395-.527-.998-.527-1.685s.222-1.29.527-1.686c.305-.395.648-.568 1-.568zm304.996 17.076.084.086-.744.732-.389-.394zm-1.658 2.643 1.53.027-1.249.51-.287-.285z" style="display:inline;opacity:1;fill:#e4007f;stroke-width:0;stroke-linecap:square;filter:url(#a)"/><path d="M27.12 3.863c-.88.04-2.108.294-3.245 1.133-2.576 1.9-2.6 3.86-2.6 3.86a4.514 4.514 0 0 0-.158 1.734l4.479 43.19-.11.083a4.514 4.514 0 0 0-1.752 3.93l.164 2.111a4.514 4.514 0 0 0 3.28 3.994c-11.271 1.224-19.834 8-22.582 16.631-1.487 4.671-1.148 9.925 1.416 14.537 2.52 4.534 7.06 8.332 13.433 10.92 1.305.777 2.626 1.29 3.93 1.69a4.084 4.084 0 0 0-1.814 2.021l-4.551 14.407a4.084 4.084 0 0 0 3.506 5.294s3.862.372 8.365.524c4.503.151 9.22.413 13.224-1l.02-.008c4.015-1.44 7.307-3.46 9.807-5.928 1.04.408 2.125.737 3.283.852 1.067.105 2.072.169 3.021.2 6.066.206 10.922-1.24 13.899-4.702l.219 2.476-.555.85a4.084 4.084 0 0 0-.643 2.652l.266 2.563c.326 3.132 3.924 4.732 6.469 2.877 0 0 .24-.173.554-.362.087-.052.164-.071.256-.105-.082.048.376.045.969.18.706.16 1.27.343 1.27.343.278.09.565.151.857.18l1.767.176a4.084 4.084 0 0 0 4.487-4.149l-.008-.404a4.084 4.084 0 0 0 4.537 3.117l9.986-2.076c.396-.25.745-.567 1.034-.935 3.694 2.079 7.936 3.365 12.525 3.365 10.301 0 19.261-6.034 22.742-14.725 1.99.598 4.045.97 6.125.975H145c5.41 0 10.798-2.13 14.67-5.842.145-.14.25-.315.39-.459l-.13 11.19-1.182 3.003-.088.221a4.084 4.084 0 0 0-.26 1.973s.094.7.313 1.367c.764 2.332 4.262 6.441 10.728 6.58 4.434.095 7.854-1.979 9.502-4.209 1.649-2.23 1.895-4.658 1.895-4.658a4.084 4.084 0 0 0-.504-2.438l-1.354-2.4.036-.594.273-4.578c.227-3.787.53-8.84.832-13.918.302-5.078.604-10.185.832-14.082.114-1.949.21-3.595.278-4.787.067-1.192.1-1.498.115-2.188.034-1.692-.853-2.923-1.52-3.566-.667-.643-1.26-.956-1.82-1.213-1.12-.514-2.08-.764-3.352-.793-.574-.013-1.22-.079-2.382.461.846-.393.423-.16.189-.105-.234.053-.606.133-1.043.218-.874.172-2.022.379-3.15.577-2.257.395-4.436.75-4.436.75-1.957.32-3.402 1.999-3.426 3.982l-.021 1.896c-.251-.27-.449-.584-.715-.84-3.872-3.712-9.26-5.841-14.67-5.841h-.01c-7.596.019-14.86 4.612-18.422 11.13-3.185-1.412-6.708-2.255-10.443-2.255-7.216 0-13.743 2.937-18.24 7.686-.891-.835-1.878-1.627-3.098-2.264-3.11-1.625-5.978-1.501-8.443-.977-.243-2.583-.41-4.34-.608-6.476-.096-1.04-.195-2.434-1.898-3.895-1.792-1.535-2.835-1.312-3.655-1.386-2.215-.201-4.312.132-6.156.427-1.844.296-3.324.625-3.324.625a4.084 4.084 0 0 0-3.125 4.733l.443 2.386a4.084 4.084 0 0 0 1.807 2.69l-.447-.287.052.605c-1.628-1.29-3.557-2.377-6.002-2.84a22.908 22.908 0 0 0-4.572-.42c-6.109.085-10.773 3.273-13.619 7.487-4.498-2.64-10.132-4.555-16.826-5.465-1.35-.184-1.426-.485-1.477-.568-.05-.084-.161-.393.03-1.034.38-1.28 1.864-2.861 3.855-2.802 2.928.086 4.07 1.058 4.86 1.947.789.89.925 1.476.925 1.476.806 3.045 4.609 4.07 6.836 1.844.59-.59.413-.474.516-.61.102-.134.214-.286.345-.466.264-.36.602-.83.997-1.383.79-1.106 1.8-2.536 2.798-3.953 1.998-2.834 3.95-5.621 3.95-5.621a4.084 4.084 0 0 0 .521-3.654s-.213-.543-.385-.842a6.479 6.479 0 0 0-.656-.93c-.534-.637-1.265-1.298-2.285-1.988-1.745-1.18-4.436-2.464-8.576-3.785a4.509 4.509 0 0 0 4.074-4.108l1.605-19.045 5.32 5.45.292 14.765a4.514 4.514 0 0 0 4.543 4.426l12.752-.086a4.514 4.514 0 0 0 3.043-1.246l.037 1.326a4.514 4.514 0 0 0 3.3 4.219s1.046.293 2.31.537c1.262.244 2.268.86 4.995.096 1.273-.357 2.661-1.184 3.547-2.106.886-.921 1.361-1.752 1.86-2.576a4.514 4.514 0 0 0 .609-1.723c.5-3.64.616-7.286.611-10.87.401.075.8.187 1.201.189.765.003 1.551-.214 2.319-.54a4.514 4.514 0 0 0 2.047 3.387c-2.265 2.559-3.985 5.06-4.834 7.645-1.009 3.072-.804 6.408.586 9.02 2.779 5.222 8.423 7.127 14.037 7.837 5.613.711 11.676.093 16.867-2.113 2.595-1.103 5.008-2.63 6.87-4.848 1.692-2.014 2.782-4.708 2.89-7.583.51-2.03.385-4.014-.133-5.856.361-.031.856.013 1.164-.033 1.42-.213 1.911-.417 2.654-.639.601.188.82.32 1.834.475.61.093 1.474.214 2.42.283.946.07 1.794.224 3.397-.186 1.152-.294 2.023-.855 2.671-1.357a31.056 31.056 0 0 1-1.152 3.135 4.514 4.514 0 0 0 1.227 5.22s4.984 4.176 11.859 3.038c4.263-.706 7.74-3.459 9.938-7.215 2.146.539 4.178.67 5.507.468 1.193-.18 1.53-.335 2.207-.535.532.162.653.26 1.506.391.54.083 1.302.191 2.15.254.849.062 1.602.216 3.149-.182 2.33-.599 3.647-2.308 3.647-2.308l.043-.063c.885.04 1.59 0 2.07-.074.614-.096 1.113-.21 1.113-.21a4.514 4.514 0 0 0 1.363-1.618c.229.292.493.555.786.783 0 0 1.035.432 2.367.799a14.21 14.21 0 0 0 4.093.521c0 .015-.019.27-.019.27a4.514 4.514 0 0 0 3.574 4.635l4.819 1.017a4.514 4.514 0 0 0 3.076-.578c.215.285.464.543.74.77l11.129 5.392a4.514 4.514 0 0 0 6.201-2.494s2.453-6.44 3.412-10.65c.47-2.06.846-4.766 1.113-7l3.819.054 1.053 13.957a4.514 4.514 0 0 0 5.209 4.118l9.972-1.586s.857-.081 1.944-.483c.543-.2 1.22-.448 2.085-1.224.866-.777 1.949-2.667 1.696-4.526-.185-1.357-1.068-2.588-1.822-3.191-.357-.285-.578-.31-.872-.455l3.565-.188a4.514 4.514 0 0 0 1.805-.568c.265.154.503.3.818.467 1.063.56 2.222 1.198 4.043 1.513 3.142.545 6.002-.016 8.404-.713 1.703-.476 3.227-1.369 4.617-2.427.29.195.601.355.928.478 0 0 1.429.146 1.795.219.626.124.04-.072.04-.072a4.514 4.514 0 0 0 4.43-.332c.451.396.977.7 1.546.89 0 0 .723.105 1.482.219.38.057.77.118 1.067.166.296.048.813.172.273.037 1.408.352 3.116-.223 3.887-.824.77-.601 1.018-1.08 1.199-1.41.362-.661.39-.925.447-1.153.115-.455.132-.667.16-.91.058-.485.087-.955.118-1.513.06-1.118.102-2.514.134-3.913.065-2.797.086-5.58.086-5.58a4.63 4.63 0 0 0-.014-.382s-.188-1.054-.355-1.455a5.756 5.756 0 0 0-.572-1.047c-.426-.627-.935-1.193-1.686-1.899-.988-.929-2.02-1.542-2.928-1.894-.776-.301-1.556-.36-1.834-.387.022-.118.026-.165.05-.287a4.45 4.45 0 0 0 .036-.233s.077-1.185-.156-1.968a5.155 5.155 0 0 0-1.369-2.198c-.467-.434-.947-.646-1.424-.869.185-.425.37-.851.477-1.424.564-3.022-.582-5.179-2.99-6.683a4.514 4.514 0 0 0-.823-.404c-1.229-.456-2.325-.5-3.137-.475-.814.025-1.406.118-1.656.143-.123.012-.247.03-.369.052-2.081.381-3.366 1.344-4.281 2.117-.478-.045-.956-.138-2.537-.46-1.986-.406-5.18-.514-8.282.992a4.515 4.515 0 0 0-.433.24c-2.2 1.385-3.919 3.352-4.82 5.644-.39-.079-.758-.251-1.159-.251-.428 0-.823.18-1.238.269l-.033-3.516.152-.152-.152.133v-.031c.234-.16.835-.527 1.73-1.703.527-.693 1.703-1.727 1.16-4.45-.27-1.361-1.368-2.719-2.357-3.306-.99-.588-1.794-.712-2.488-.782-1.79-.179-4.48-.182-7.164-.199-2.685-.017-5.074-.006-5.074-.006a4.514 4.514 0 0 0-4.489 4.602l.256 13.096-2.142.066-.37-13.402a4.514 4.514 0 0 0-4.777-4.381l-11.65.685a4.514 4.514 0 0 0-1.717.451s-2.696 1.73-3.094 4.338c-.398 2.608.749 4.977 2.756 7.375-.954-1.14.176.822.303 3.366.016.325-.046.83-.037 1.181-1.51-2.126-3.846-3.635-6.688-3.498-2.875.138-5.077 1.87-6.383 4.15-.259-.182-.265-.309-.633-.51-1.439-.786-2.256-.84-3.033-.991-.776-.151-1.422-.227-1.422-.227a4.514 4.514 0 0 0-1.994.873l.02-.185c.578-5.54 1.146-11.018 1.146-11.018a4.514 4.514 0 0 0-1.113-3.461s-1.017-.968-1.92-1.393c-.903-.424-2.042-.718-3.37-.789-3.125-.165-5.534 1.473-5.534 1.473a4.514 4.514 0 0 0-1.34 1.465c-.79 1.383-.457 1.098-.502 1.277-.045.18-.079.327-.113.494-.07.335-.144.732-.229 1.217-.17.972-.379 2.282-.601 3.848-.446 3.132-.944 7.27-1.248 11.566-.007.103-.003.183-.01.285-.59-.268-1.02-.356-1.418-.45a20.832 20.832 0 0 0-1.74-.327c-1.086-.164-2.044-.254-2.044-.254a4.594 4.594 0 0 0-.19-.015c-1.827-.098-4.353-.497-7.3.015.246-.504.454-.953.527-1.074.18-.294 1.68-2.248 1.68-2.248a4.514 4.514 0 0 0 .19-5.44s-4.572-6.774-13.084-7.892a4.513 4.513 0 0 0-.578-.04c-7.814-.016-13.403 5.683-15.973 11.907-.423-.138-.734-.151-1.086-.234-.678-.16-1.332-.27-1.945-.362a48.35 48.35 0 0 0-2.315-.287 4.435 4.435 0 0 0-.187-.013c-1.017-.054-2.215-.183-3.512-.25-.054-.214-.078-.425-.14-.64a4.514 4.514 0 0 0 2.517-.933c2.205-1.93 3.073-4.808 2.982-7.133-.09-2.324-.864-4.289-1.98-5.95a4.514 4.514 0 0 0-1.381-1.327c-1.936-1.192-3.941-2.04-6.184-2.047-2.866-.008-5.125 1.47-6.771 2.81-1.19.97-2.443 2.083-3.734 3.188-7.412-1.45-14.282.506-18.733 4.924-1.402-2.074-3.702-3.568-6.178-3.568-3.507 0-6.742 2.888-7.306 6.41-.483-.11-.943-.316-1.444-.316-.62 0-1.198.226-1.789.392-.622-3.488-3.554-6.736-7.367-6.736-.68 0-1.284.254-1.908.443l.01-6.203.047-.027a4.514 4.514 0 0 0 2.09-3.053l.314-1.746a4.513 4.513 0 0 0-4.324-5.313l-12.578-.324a4.514 4.514 0 0 0-4.63 4.543l.071 10.442L30.756 4.844a4.514 4.514 0 0 0-1.076-.582s-1.094-.465-2.56-.399zM271.761 25.91c-.006.006-.02.014-.026.02 0-.008-.025 0 .012-.016zM140.85 34.545l.603.385c-.168-.128-.219-.11-.363-.207-.088-.053-.149-.13-.24-.178zm15.588 3.97c.01.046.01.054-.047.087l.047-.086zm23.876 1.587.602.388c-.167-.127-.211-.108-.353-.205-.091-.054-.154-.133-.249-.183zm-19.29 2.232a4.514 4.514 0 0 0 2.08.492l-.131.826a30.892 30.892 0 0 0-1.95-1.318zm-13.555 10.314c.469.338.932.71 1.398 1-.459.33-.851.743-1.158 1.217l-.03-1.715a4.505 4.505 0 0 0-.21-.502zm-71.586 1.34.142 5.041a4.514 4.514 0 0 0-2.205.739l.041-1.127a4.514 4.514 0 0 0-1.215-3.246l-.652-.698c.19.018.364.074.559.08 1.01.031 2.167-.236 3.33-.789zm325.32 10.764a3.717 3.717 0 0 0-4.543 3.541l-.396 18.137c-.497-.151-.914-.172-1.362-.248a25.959 25.959 0 0 0-2.69-.287c-1.91-.122-4.053-.144-5.857-.137-2.164.008-3.845.064-3.845.064a3.717 3.717 0 0 0-3.592 3.604l-.092 3.111a3.717 3.717 0 0 0-1.68-1.978l-11.72-2.387a3.717 3.717 0 0 0-2.48 1.371l.27-16.293a3.717 3.717 0 0 0-3.927-3.773l-3.312.187a3.717 3.717 0 0 0-1.618.475s-1.186.67-2.857 1.37c.516-.216-1.83.277-3.545.339-1.715.061-3.23.033-3.23.033a3.717 3.717 0 0 0-3.79 3.803l.2 8.353c-4.455-4.896-10.908-7.762-17.371-7.762-6.425 0-12.764 1.826-17.412 6.391-4.649 4.565-7.251 11.614-7.075 20.863.182 9.53 2.735 16.53 7.325 21.037 4.589 4.508 10.83 6.13 17.193 6.077.434-.003.85-.014 1.252-.026 7.236-.218 13.115-1.958 17.094-6.222l.236 4.58a3.717 3.717 0 0 0 2.734 3.394l6.473 1.762c.136.037.273.066.412.088 3.778.58 7.268-1.049 9.459-3.43 1.785-1.94 2.7-4.407 2.994-6.996 3.547 3.564 9.154 5.16 15.967 3.686a3.717 3.717 0 0 0 1.965 1.568l12.197.531a3.717 3.717 0 0 0 3.125-1.47s.538-.7 1.05-1.63c.022-.038.052-.097.075-.136a14.37 14.37 0 0 0 3.365.945c4.224.657 8.46-.074 10.645-.35.25-.134.485-.296.699-.484a13.975 13.975 0 0 0 3.99 2.264c2.96 1.072 6.196 1.317 9.565 1.119l.011-.002c6.362-.396 11.07-3.056 13.776-6.701 2.705-3.646 3.465-7.896 3.46-11.512v-.068c-.162-8.451-4.528-14.072-10.007-16.635-4.491-2.101-9.395-2.667-14.041-3.188l.422-18.27a3.717 3.717 0 0 0-2.393-3.558l-7.875-3a3.717 3.717 0 0 0-.494-.15zm-108.887 7.012c-.556.002-1.157.053-1.808.16-2.03.333-4.39 1.224-6.613 2.055-2.225.83-4.098 1.601-4.098 1.601a3.158 3.158 0 0 0-1.955 2.88l-.182 15.03a15.881 15.881 0 0 0-2.527-2.715c-3.906-3.28-9.043-4.558-14.383-4.558-5.368 0-10.496 1.362-14.377 4.668-.424.361-.754.828-1.14 1.234l.802-8.928a3.158 3.158 0 0 0-3.05-3.439l-11.538-.34.114.018c-.238-.03-.493-.063-.768-.051-1.176.053-3 .773-4.129 2.351-1.056 1.476-.94 2.323-1.049 3.342-.11 1.02-.135 2.082-.135 3.088.001 1.894.108 3.48.122 3.674 0 .055.015 1.676.013 3.475 0 .356-.006.67-.008 1.023-2.553-.157-5.9-.294-8.802.385a14.442 14.442 0 0 0-5.766 2.804l.094-11.886c.54-.015.562-.013 1.164-.031 1.09-.034 2.217-.072 3.156-.114.938-.041 1.474-.042 2.219-.152 1.244-.183 2.164-1.08 2.556-1.713.392-.632.51-1.122.606-1.562.19-.88.2-1.617.195-2.327-.01-1.42-.176-2.703-.176-2.703a3.158 3.158 0 0 0-3.11-2.767l-30.03-.237a3.158 3.158 0 0 0-3.178 2.957s-.074 1.107-.008 2.397c.033.645.094 1.348.264 2.111.169.763.301 1.653 1.377 2.703 1.287 1.258 2.045 1.183 2.884 1.377.84.194 1.695.315 2.504.406h.008l-.314 33.854c-.628-.074-.749-.176-1.373-.186a14.643 14.643 0 0 0-2.916.252 3.158 3.158 0 0 0-2.535 3.084l-.016 4.28a3.158 3.158 0 0 0 3.067 3.168l27.181.787a3.158 3.158 0 0 0 2.6-1.237s.443-.572.863-1.34c.382-.696.889-1.618.858-3.163.352.012.738.062 1.072.066.924.012 1.753-.02 2.379-.053.626-.033 1.457-.06.927-.06 1.145 0 1.068-.16 1.301-.24.233-.08.442-.163.67-.256.457-.187.97-.416 1.496-.655.298-.135.44-.206.727-.34.334.478.794.854 1.328 1.086 2.031.145 4.385.616 7.027.46 2.642-.157 5.743-1.283 7.88-4.003l.095-.128c1.57-2.415.193-4.424 2.447-2.092 3.96 3.243 9.122 4.394 14.422 4.394 5.436 0 10.601-1.559 14.469-4.926.794-.691 1.48-1.505 2.138-2.343l-.013 1.209c-.01.096-.019.164-.037.383a18.83 18.83 0 0 0-.022 3.109c.107 1.301.212 2.822 1.527 4.418 2.079 2.521 5.489 3.686 8.958 3.107 2.357-.393 3.99-1.64 5.503-2.894 1.514-1.254 2.694-2.447 3.538-3.809.64-1.034 1.077-1.938 1.082-3.201.004-1.18-.61-2.762-2.291-3.371.065-1.214.15-2.902.25-4.934.199-4.103.452-9.551.7-14.994.498-10.885.98-21.744.98-21.744a3.158 3.158 0 0 0-.583-1.975s-.329-.415-.596-.646a4.712 4.712 0 0 0-1.005-.66c-.8-.392-1.825-.629-3.032-.623zm31.698 22.209c-.005.034.355.182.865.832.692.882 1.45 2.385 1.898 3.933a3.717 3.717 0 0 0 3.703 2.598 3.717 3.717 0 0 0-3.388 2.662c-.34 1.609-.973 2.861-1.602 3.564-.629.704-1.1.943-1.945.967h-.006c-.286.01-.305.008-.082.008-1.87 0-2.773-.663-3.713-2.072-.94-1.41-1.541-3.66-1.541-5.746 0-2.067.572-3.842 1.461-4.94.868-1.072 1.983-1.774 4.35-1.806zm54.613 5.256-.328 11.02-.022.726c-.352.152-.758.33-.763.33.136.016-.239-.303-.545-.596l-.42-9.879c.012-.005.024-.004.037-.01.95-.408 1.56-.985 2.04-1.592zm-320.502 1.535c1.366 0 2.474 1.434 2.475 3.203 0 1.769-1.109 3.203-2.475 3.203-1.367 0-2.476-1.433-2.477-3.203 0-1.77 1.11-3.205 2.477-3.203zm304.334 17.896h.004l-.014.8-.004-.003zm-.045 2.637.002.002-.004.156z" style="color:#000;display:inline;opacity:1;fill:#fff;stroke:none;stroke-width:0;stroke-linecap:square;stroke-dasharray:none;stroke-opacity:1"/><g style="display:inline"><path d="m25.607 10.125 4.738 45.697-2.11 1.622.163 2.11 11.845 1.136 2.434-28.885 13.469 13.793.325 16.552 12.752-.085.128-3.586-2.562-2.738.069-42.112 2.204-1.345.314-1.747-12.578-.325.123 17.812-2.158.024L28.086 8.484s-.882-.334-1.53.144c-.65.479-.95 1.497-.95 1.497zM167.611 43.233l-.542 3.378c2.48-.492 6.283-.061 7.127.128.845.189 1.5.947.581 1.858-.629.624-1.233.648-2.394.71-5.717-.239-7.205 1.04-7.22 5.902-.095 1.963.356 3.32 1.852 4.16 2.063 1.02 3.804.947 5.246.73 1.443-.218 2.922-.71 2.922-.71s1.209.424 2.15.568c.942.145 2.687.368 3.489.162a2.562 2.562 0 0 0 1.257-.771l-.04-2.434s-1.787-.047-2.046-.524c-1.648-1.938 1.725-10.415-1.812-12.31-.623-.475-4.064-.805-4.064-.805-2.158-.114-4.55-.428-6.506-.042zm3.808 7.98c1.512 0 2.365 1.692 2.365 3.675 0 1.983-.853 3.506-2.365 3.506-1.513 0-2.309-1.465-2.308-3.449 0-1.982.795-3.733 2.308-3.733zM126.555 37.558l-.623 3.869c2.854-.563 7.234-.07 8.206.147.972.217 1.727 1.085.669 2.128-.725.715-1.42.743-2.757.814-6.582-.274-8.296 1.192-8.312 6.76-.11 2.248.409 3.802 2.132 4.765 2.374 1.168 4.38 1.085 6.04.836 1.66-.25 3.363-.813 3.363-.813s1.392.485 2.476.65c1.085.167 3.093.423 4.017.187.923-.237 1.448-.884 1.448-.884l-.047-2.788s-2.057-.054-2.355-.6c-1.898-2.22 1.986-11.93-2.086-14.101-.718-.544-4.68-.921-4.68-.921-2.485-.132-5.238-.491-7.49-.05zm4.495 10.024c1.741 0 2.613 1.055 2.613 3.326 0 2.272-.871 2.955-2.613 2.955s-2.769-.617-2.768-2.889c0-2.27 1.027-3.392 2.768-3.392z" style="display:inline;opacity:1;fill:#000;fill-opacity:1;stroke:#000;stroke-width:0;stroke-linecap:square"/><path d="M162.19 38.458s.947-2.13 1.542-3.103c.595-.974 2.029-2.738 2.029-2.738s-3.643-5.181-9.979-6.013c-5.793-.013-10.142 4.435-12.09 9.655-1.448 6.221 3.928 11.55 8.182 14.017 2.841 1.601 5.043 2.652 6.26 4.085 2.433 2.867-.9 5.838-1.38 5.923-3.993.706-5.922-3.489-5.922-3.489a23.771 23.771 0 0 1-.838 4.103 35.03 35.03 0 0 1-1.442 3.932s3.336 2.832 8.203 2.026c4.866-.806 10.306-7.472 8.019-14.054-3.092-8.409-16.25-8.584-12.298-16.446 2.322-4.055 9.715 2.102 9.715 2.102zM186.37 23.367c-.163.284-1.522 8.175-2.11 16.48-.589 8.307-.406 17.03-.406 17.03s1.158.7 1.823.793c.666.092 2.168-.24 2.168-.24l.31-6.72 2.057.14 2.486 5.982s3.141 1.303 5.274 1.018c2.132-.285 2.434-2.434 2.434-2.434l-4.625-6.572 5.313-7.427s-1.404-1.613-2.249-2.075c-.845-.462-2.822-.698-2.822-.698s-5.272 7.279-5.597 7.279c-.325 0-1.623.324-1.542-.162.081-.487 2.353-22.394 2.353-22.394s-.517-.583-2.15-.67c-1.632-.085-2.718.67-2.718.67zM216.77 23.033s-2.02.988 1.14 4.763c3.158 3.775.353 28.12-2.145 31.401-2.498 3.281-3.49 2.88-3.49 2.88l-.688 2.294 11.13 5.393s2.46-6.641 3.245-10.083c.784-3.443 1.46-10.57 1.46-10.57l12.062.17 1.363 18.073 10.097-1.606s1.957-.256 1.836-1.147c-.121-.892-3.098-.46-3.098-.918 0-.46-.344-37.177-.344-37.177l1.491-1.492s2.93-2.227.636-2.456c-2.295-.23-11.766-.183-11.766-.183l.344 17.556-11.13.344-.492-17.928zM255.139 36.117a2.204 2.171 0 0 0-2.205 2.172 2.204 2.171 0 0 0 2.205 2.17 2.204 2.171 0 0 0 2.203-2.17 2.204 2.171 0 0 0-2.203-2.172zm-.342 6.545c-.546.002-1.118.11-1.809.32 0 0 .071 4.494.1 6.602.029 2.108-.115 6.324-.115 6.324l4.914-.258-.76-1.398s-.448-3.289-.486-5.12c-.039-1.83.347-5.939.347-5.939-.827-.359-1.49-.533-2.191-.53zM208.244 36.248c-1.919.092-3.416 1.87-3.361 3.994.055 2.125 1.643 3.806 3.564 3.776 1.922-.03 3.465-1.762 3.465-3.887l-.006-.223c-.11-2.122-1.742-3.752-3.662-3.66zm-3.248 11.09c-.987 2.08-1.131 2.793-1.71 4.59-.993 3.117-1.368 10.88-1.368 10.88l4.818 1.018s-.188-2.759.98-7.523c1.17-4.765 2.067-7.58 2.067-7.58s-.975-1.255-2.144-1.559c-.915-.101-1.752-.216-2.643.174zM82.422 32.781a2.984 2.984 0 0 0-2.984 2.985 2.984 2.984 0 0 0 2.984 2.984 2.984 2.984 0 0 0 2.984-2.984 2.984 2.984 0 0 0-2.984-2.985Zm-2.381 8.635.547 19.293s-.337 1.299-1.371 2c-1.034.701-2.473.277-2.473.277l.102 3.543s3.582.998 4.875.635c1.292-.362 1.82-1.114 2.763-2.672 1.022-7.44.408-15.428.309-22.94zM73.266 26.438a3.11 3.484 0 0 0-3.11 3.484 3.11 3.484 0 0 0 3.11 3.484 3.11 3.484 0 0 0 3.109-3.484 3.11 3.484 0 0 0-3.11-3.485Zm-1.004 9.265c-.6.004-1.17.183-1.826.662 0 0-.241 10.913-.163 12.463.079 1.55 4.766 2.505 4.8-.664l-.08-11.873c-1.138-.308-1.96-.593-2.731-.588zM91.172 26.688a3.016 2.89 0 0 0-3.016 2.89 3.016 2.89 0 0 0 3.016 2.89 3.016 2.89 0 0 0 3.016-2.89 3.016 2.89 0 0 0-3.016-2.89Zm-.348 9.171c-.761-.02-1.505.231-2.025.721-.029.115-.045 11.871-.045 11.871.495 1.835 3.547 2.152 4.13-.287l.075-11.398a3.132 3.132 0 0 0-2.135-.907z" style="display:inline;opacity:1;fill:#000;fill-opacity:1;stroke:#000;stroke-width:0;stroke-linecap:square"/><path d="M278.816 27.639c-.476.014-.94.082-1.351.123-1.125.206-2.029.917-2.727 1.539-.32.285-.753.557-1.154.736-3.335.42-5.718-2.114-10.06-.006-3.966 2.496-4.597 6.986-1.23 9.7l-1.987 4.574c8.314 1.336 12.688 4.788 10.192 7.813-1.487 1.803-5.114 1.143-5.946.775-1.723-.836-1.203-3.684-1.203-3.684l-.649-1.803s-1.12 1.195-1.79 2.772c-.4.938-.522 1.972-.436 2.976.057.667.47 1.683.705 1.899.235.215 2.765 1.79 4.379 2.07 2.108.365 4.359-.01 6.404-.605 3.69-1.026 6.19-3.829 6.031-7.063-.36-4.363-3.76-5.505-8.197-6.248l.273-1.605c4.89-2.028 7.698-4.82 5.375-9.454 0 0 1.155-.992 1.883-1.209.896-.266 1.967.312 2.826-.043.467-.192.95-.573 1.035-1.035.136-.724-.28-1.613-.943-2.027-.464-.172-.953-.21-1.43-.195zm-9.431 4.623c1.623 0 2.94 1.513 2.94 3.38 0 1.868-1.317 3.382-2.94 3.381-1.623 0-2.938-1.514-2.938-3.38 0-1.867 1.315-3.38 2.938-3.381z" style="display:inline;opacity:1;fill:#000;fill-opacity:.982609;stroke:#000;stroke-width:0;stroke-linecap:square"/><path d="m280.397 36.83-.248 5.969-1.053 11.61s1.416.112 2.316.29c.9.18 1.185.323 1.185.323l.17-4.315.168-4.316s1.626-1.586 3.004-1.438c1.697.118 1.92 2.708 1.92 2.708l-.662 7.486s2.931.425 3.27.51c.169.042.274-2.697.338-5.447.063-2.75.085-5.511.085-5.511s-.029-.353-1.206-1.46c-1.178-1.107-2.052-1.121-2.052-1.121-4.514-.134-3.95.278-4.357-.663-.406-.941-.054-2.752.353-4.91 0 0 .066-.493-1.243-.604-1.308-.112-1.809.26-1.809.26zM126.574 19.334c-2.747-.008-4.628 2.712-9.135 6.254-15.05-4.664-27.355 8.949-15.546 19.908l-4.774 8.217 3.895.81c16.39 5.496 16.431 18.034 6.654 17.688-9.777-.346-8.644-4.621-5.494-11.09 0 0 .742-1.42.164-2.03-.578-.608-2.783-.105-2.783-.105-24.557 29.987 49.06 23.398 19.537-5.998-4.612-3.376-6.233-3.13-6.233-3.13v-1.42l1.381-.487c9.785-1.288 16.952-8.948 9.51-19.666 0 0 1.49-.256 2.24-.316 1.392-.112 4.186-.086 4.186-.086 2.21-1.936 1.573-5.173.23-7.172-1.548-.953-2.757-1.374-3.832-1.377zM108.357 31.4c2.442 0 4.422 2.815 4.422 6.288 0 3.473-1.98 6.289-4.422 6.289-2.442 0-4.422-2.816-4.421-6.29 0-3.472 1.98-6.287 4.421-6.287z" style="display:inline;opacity:1;fill:#000;fill-opacity:1;stroke:#000;stroke-width:0;stroke-linecap:square"/></g><g style="display:inline;opacity:1;fill:#0f0"><path d="M40.555 85.519c.354-.354 8.149-11.486 8.149-11.486s-.897-2.64-11.29-5.599C10.2 63.039-4.694 92.063 21.27 102.33c6.078 3.88 15.806 1.076 15.7 6.612-.105 5.535-6.528 4.313-11.514 1.985l-4.552 14.408s15.024 1.434 19.843-.265c20.65-7.408 15.038-29.68-12.884-33.477-8.97-1.22-4.885-12.77 3.08-12.535 7.965.236 9.612 6.46 9.612 6.46z" style="opacity:1;fill:#e4007f;fill-opacity:1;stroke:#fff;stroke-width:0;stroke-linecap:square;stroke-miterlimit:5;stroke-dasharray:none;stroke-opacity:1"/><path d="M58.375 110.293v9.664c11.178.378 13.256-4.8 13.469-14.14l-8.303.26s-.45 3.871-5.166 4.216z" style="opacity:1;fill:#e4007f;fill-opacity:1;stroke:none;stroke-width:0;stroke-linecap:square;stroke-miterlimit:5;stroke-dasharray:none;stroke-opacity:1"/><path d="M58.916 89.607c-17.507.242-16.058 28.906-3.299 30.166a42.63 42.63 0 0 0 2.758.184v-9.664c-.37.027-.763.036-1.188.016-9.66-5.299 1.688-20.835 6.354-8.674.221 0 8.01-.121 8.01-.121s-.274-9.931-8.88-11.559a18.817 18.817 0 0 0-3.755-.348z" style="opacity:1;fill:#f39800;fill-opacity:1;stroke:none;stroke-width:0;stroke-linecap:square;stroke-miterlimit:5;stroke-dasharray:none;stroke-opacity:1"/><path d="m71.595 82.643.442 2.387 1.237.795 3.27 37.035-1.326 2.033.266 2.563s1.716-.566 2.607-.663c1.363-.148 4.11.133 4.11.133l1.768.176-.442-21.655s.09-3.45 3.8-2.917c3.712.533 3.801 5.215 3.801 5.215l.62 17.987 9.987-2.077.442-1.414-2.298-1.944-.707-16.883s-.915-6.656-6.276-9.457c-5.361-2.801-10.12 1.105-10.12 1.105s-.743-7.901-1.105-11.8c-.04-.421-.181-.906-.49-1.17-.31-.266-.892-.378-1.366-.421-2.748-.25-8.22.972-8.22.972z" style="opacity:1;fill:#e4007f;fill-opacity:1;stroke:none;stroke-width:0;stroke-linecap:square;stroke-miterlimit:5;stroke-dasharray:none;stroke-opacity:1"/><path d="M116.125 89c-11.184 0-20.25 8.283-20.25 18.5s9.066 18.5 20.25 18.5 20.25-8.283 20.25-18.5-9.066-18.5-20.25-18.5zm-3.188 6.75c4.177 0 7.563 5.065 7.563 11.313 0 6.247-3.386 11.312-7.563 11.312-4.176 0-7.562-5.065-7.562-11.313 0-6.247 3.386-11.312 7.563-11.312z" style="opacity:1;fill:#f39800;fill-opacity:1;stroke:none;stroke-width:0;stroke-linecap:square;stroke-miterlimit:5;stroke-dasharray:none;stroke-opacity:1"/><path d="M145 80.125a16.75 16.063 0 0 0-16.75 16.063A16.75 16.063 0 0 0 145 112.25a16.75 16.063 0 0 0 16.75-16.063A16.75 16.063 0 0 0 145 80.126Zm-3.05 6.403a6.255 9.822 0 0 1 6.255 9.822 6.255 9.822 0 0 1-6.255 9.822 6.255 9.822 0 0 1-6.256-9.822 6.255 9.822 0 0 1 6.256-9.822z" style="fill:#e4007f;fill-opacity:1;stroke:none;stroke-width:0;stroke-linecap:square;stroke-miterlimit:5;stroke-dasharray:none;stroke-opacity:1"/><path d="m162.594 126.516-.047-.79-.09.227s.026.224.137.563z" style="opacity:.757;fill:#0f0;fill-opacity:.982609;stroke:none;stroke-width:0;stroke-linecap:square;stroke-miterlimit:5;stroke-dasharray:none;stroke-opacity:1"/><path d="M174.834 121.578c-.151.022-.246.039-.404.06-.82.116-1.721.231-2.573.32-.425.043-.838.08-1.224.106-.386.027-.746.044-1.06.045-.316.002-.664-.01-1.036-.033a31.117 31.117 0 0 1-1.166-.092c-.4-.039-.81-.085-1.213-.134-.402-.05-.799-.104-1.176-.157-.382-.053-.644-.098-.972-.148l-.006.475-1.457 3.707.047.789c.374 1.144 1.78 3.658 6.935 3.77 6.68.143 7.248-5.216 7.248-5.216l-1.945-3.447.002-.045z" style="opacity:1;fill:#e4007f;fill-opacity:1;stroke:none;stroke-width:0;stroke-linecap:square;stroke-miterlimit:5;stroke-dasharray:none;stroke-opacity:1"/><path d="M174.563 79.025c-.236-.005-.436.02-.57.082-.718.334-9.503 1.768-9.503 1.768l-.48 40.67c.328.05.59.095.972.148a49.811 49.811 0 0 0 2.389.291c.401.04.795.07 1.166.092.372.022.72.035 1.035.033.315-.002.675-.018 1.06-.045a36.24 36.24 0 0 0 1.225-.107 72.24 72.24 0 0 0 2.573-.318c.158-.022.253-.039.404-.06.005-.09 2.41-40.193 2.43-41.145.015-.776-1.68-1.386-2.702-1.409z" style="opacity:.757;fill:#f39800;fill-opacity:1;stroke:none;stroke-width:0;stroke-linecap:square;stroke-miterlimit:5;stroke-dasharray:none;stroke-opacity:1"/></g><g style="display:inline;opacity:1"><path d="M187.688 79.188s-.246 3.838.687 4.75c.933.91 6.375 1.124 6.375 1.124l-.375 40.376s-2.948-.606-4.55-.632c-1.204-.019-2.241.19-2.241.19l-.015 4.28 27.181.786s1.229-1.605 1.125-2.687c-1.118-4.04-4.753-3.51-8.188-3.813l.313-39s8.128-.189 9.212-.349c1.083-.16.506-4.789.506-4.789z" style="opacity:1;fill:#e4007f;fill-opacity:1;stroke:none;stroke-width:0;stroke-linecap:square;stroke-miterlimit:5;stroke-dasharray:none;stroke-opacity:1"/><path d="M227.625 99.594c-2.16-.143-7.485-.415-10.102.197-3.3.772-5.408 2.194-7.16 5.215-1.752 3.02-2.443 8.686-1.324 12.02 1.12 3.333 3.61 5.296 6.186 6.54 2.576 1.245 7.69.707 8.132.707.393 0 3.82-1.633 4.668-2.039zm-7.936 5.765c2.417 0 4.375 1.083 4.375 6.762 0 3.734-.634 6.659-4.375 6.762-3.211.088-4.316-3.028-4.375-6.762-.088-5.59 1.96-6.762 4.375-6.762z" style="opacity:1;fill:#e4007f;fill-opacity:1;stroke:none;stroke-width:0;stroke-linecap:square;stroke-miterlimit:5;stroke-dasharray:none;stroke-opacity:1"/><path d="m227.625 99.594.4 22.64.547-.257.532 1.9c4.539.323 9.037 1.678 12.197-2.344.741-1.05.617-3.004.617-3.004l-2.209-.265 3.182-35.356-11.537-.34s-.165-.046-.42-.035c-.427.02-1.105.202-1.702 1.035-.954 1.334-.472 8.18-.472 8.18s.06 6.86-.073 7.92h-.002s-.495-.037-1.06-.074zM292.594 119.389l-12.14.857c-.097 1.134-.227 4.012.796 5.254 1.285 1.56 3.538 2.41 6 2 2.462-.41 5.937-3.736 6.875-5.25.938-1.514.562-1.954.385-1.998-.132-.033-1.356-.536-1.916-.863z" style="opacity:1;fill:#f6b13d;fill-opacity:1;stroke:none;stroke-width:0;stroke-linecap:square;stroke-miterlimit:5;stroke-dasharray:none;stroke-opacity:1"/><path d="M292.33 74.922a8.36 8.36 0 0 0-1.31.119C288.324 75.483 281 78.5 281 78.5l-.5 41.25s-.022.206-.047.496l12.14-.857c-.19-.112-.306-.201-.273-.246.133-.177 2.057-43.616 2.057-43.616s-.437-.612-2.047-.605z" style="opacity:1;fill:#e4007f;fill-opacity:1;stroke:none;stroke-width:0;stroke-linecap:square;stroke-miterlimit:5;stroke-dasharray:none;stroke-opacity:1"/><path d="M260.75 89.375c-9.665 0-17.381 4.916-17.5 16.563-.125 12.272 7.835 16.562 17.5 16.562s17.558-5.542 17.5-16.563c-.062-11.9-7.835-16.562-17.5-16.562zm-2.438 8.375a5.688 8.688 0 0 1 5.688 8.688 5.688 8.688 0 0 1-5.688 8.687 5.688 8.688 0 0 1-5.687-8.688 5.688 8.688 0 0 1 5.688-8.687z" style="opacity:1;fill:#e4007f;stroke-width:0;stroke-linecap:square;stroke-miterlimit:5;fill-opacity:1"/></g><g style="opacity:1"><path d="m323.652 112.244 1.286 14.658c13.7-.413 18.879-6.159 19.542-21.713l-13.751-.421c-.889 4.199-3.336 7.368-7.077 7.476z" style="opacity:1;fill:#f6b13d;stroke-width:0;stroke-linecap:square;stroke-miterlimit:5;fill-opacity:1"/><path d="M323.766 79.992c-11.472 0-21.096 6.38-20.77 23.467.34 17.832 9.298 23.562 20.77 23.467.398-.004.787-.012 1.171-.024l-1.285-14.658c-.065.002-.128.01-.195.01-6.183 0-8.97-6.092-8.97-11.535 0-5.443 2.875-10.475 9.677-10.475 2.59 0 5.053 3.558 6.184 7.46 1.219-.08 11.098 1.056 12.775.97-.011-11.594-9.757-18.682-19.357-18.682z" style="opacity:1;fill:#e4007f;stroke-width:0;stroke-linecap:square;stroke-miterlimit:5;fill-opacity:1"/><path d="M358.695 121.393c-4.982.3-10.12.607-12.931.77l.011.52.315 6.1 6.473 1.762c4.98.765 8.623-4.038 8.46-8.354l-2.336-.379.008-.42z" style="opacity:1;fill:#f6b13d;fill-opacity:1;stroke:none;stroke-width:0;stroke-linecap:square;stroke-miterlimit:5;stroke-dasharray:none;stroke-opacity:1"/><path d="m359.5 73.188-3.313.187s-1.37.775-3.25 1.563c-1.878.787-8.285.658-8.285.658l1.112 46.566c2.812-.162 7.949-.47 12.931-.77l.805-48.204z" style="opacity:1;fill:#e4007f;fill-opacity:1;stroke:none;stroke-width:0;stroke-linecap:square;stroke-miterlimit:5;stroke-dasharray:none;stroke-opacity:1"/><path d="m382.014 110.36-.088 2.954s-2.508 1.967-4.862 1.68c-2.353-.286-3.76-2.967-3.76-2.967l-.61-14.418s1.043.389 2.427-.205c1.384-.593 1.283-3.203 1.283-3.203l-11.72-2.387-1.143 3.026s-.854 7.985-1.016 11.181c-.389 10.129 3.745 22.605 19.489 17.37v-13.032z" style="opacity:1;fill:#f6b13d;fill-opacity:1;stroke:none;stroke-width:0;stroke-linecap:square;stroke-miterlimit:5;stroke-dasharray:none;stroke-opacity:1"/><path d="M382.014 110.36v13.03l.53 1.944 12.198.531s1.585-2.094 1.326-3.181c-.258-1.088-2.474-2.121-2.474-2.121l.088-26.165 1.767-.529s1.504-2.509.137-3.61c-1.367-1.1-12.953-.722-12.953-.722l-.62 20.822zM416.756 95.031l-3.412 26.38.281-.536c2.183 4.239 7.19 5.607 13.25 5.25 11.05-.688 13.757-8.364 13.75-14.5-.286-14.824-12.734-15.22-23.87-16.594zm10.17 9.703c.199-.004.406.005.617.028 3.773.409 4.918 3.095 4.521 7.556-.353 3.977-2.128 7.1-5.517 6.866-3.301-.228-4.877-3.05-4.522-7.559.295-3.731 1.914-6.82 4.9-6.89z" style="opacity:1;fill:#e4007f;fill-opacity:1;stroke:none;stroke-width:0;stroke-linecap:square;stroke-miterlimit:5;stroke-dasharray:none;stroke-opacity:1"/><path d="m413.344 121.41 3.412-26.379L416.5 95l.5-21.625-7.875-3-8.75-2-1 45.75-2.625 3.125c-.208 8.396 11.046 6.578 15.625 6l.969-1.84z" style="opacity:1;fill:#f6b13d;fill-opacity:1;stroke:none;stroke-width:0;stroke-linecap:square;stroke-miterlimit:5;stroke-dasharray:none;stroke-opacity:1"/></g></svg>